<?xml version="1.0" standalone="no"?>
<!DOCTYPE svg PUBLIC "-//W3C//DTD SVG 20010904//EN"
 "http://www.w3.org/TR/2001/REC-SVG-20010904/DTD/svg10.dtd">
<svg version="1.0" xmlns="http://www.w3.org/2000/svg"
 width="2048.000000pt" height="2048.000000pt" viewBox="0 0 2048.000000 2048.000000"
 preserveAspectRatio="xMidYMid meet">
<metadata>
Created by potrace 1.11, written by Peter Selinger 2001-2013
</metadata>
<g transform="translate(0.000000,2048.000000) scale(0.100000,-0.100000)"
fill="#000000" stroke="none">
<path d="M0 10240 l0 -10240 10240 0 10240 0 0 10240 0 10240 -10240 0 -10240
0 0 -10240z m4802 3574 l3 -556 129 183 c71 101 154 217 183 257 l53 72 275 0
c151 0 275 -3 275 -7 0 -5 -113 -163 -251 -351 l-251 -344 226 -394 c124 -216
226 -396 226 -399 0 -3 -120 -4 -267 -3 l-268 3 -107 185 c-59 102 -119 205
-133 229 l-26 44 -32 -39 -32 -38 -5 -191 -5 -190 -232 -3 -233 -2 0 1050 0
1050 235 0 235 0 2 -556z m-2617 -9 c125 -280 314 -706 420 -945 106 -239 209
-470 229 -514 20 -43 36 -82 36 -87 0 -5 -121 -9 -269 -9 l-269 0 -116 288
c-65 158 -151 374 -194 480 -42 105 -79 192 -82 192 -4 0 -94 -213 -200 -472
-105 -260 -195 -476 -199 -481 -4 -4 -120 -6 -258 -5 l-250 3 224 505 c123
278 323 726 443 995 120 270 226 507 235 529 9 21 18 37 19 35 2 -2 106 -233
231 -514z m1640 -50 c97 -28 202 -79 255 -123 l33 -28 -126 -151 -126 -151
-91 46 c-76 38 -103 46 -164 50 -86 5 -136 -13 -136 -52 0 -35 22 -49 190
-121 206 -88 263 -120 332 -183 78 -73 115 -149 129 -267 18 -166 -15 -278
-113 -376 -58 -58 -168 -114 -263 -134 -90 -19 -284 -19 -372 -1 -133 28 -281
95 -362 164 l-35 29 98 156 c53 86 99 157 100 157 2 0 32 -13 67 -30 76 -35
196 -67 282 -75 75 -7 127 17 127 60 0 32 -16 42 -204 125 -181 79 -224 103
-289 160 -99 88 -147 194 -147 328 0 129 45 241 126 312 70 61 207 115 339
134 80 12 262 -3 350 -29z m962 -1814 c85 -43 129 -127 121 -233 -10 -134
-140 -227 -278 -197 -107 23 -180 113 -180 221 0 99 46 173 135 215 60 29 138
27 202 -6z m-1580 -465 c106 -263 195 -481 198 -484 3 -3 7 -3 8 -1 2 2 91
220 198 484 l194 480 254 3 c249 2 253 2 248 -18 -3 -11 -209 -479 -459 -1040
l-453 -1021 -39 83 c-21 46 -134 299 -251 563 -117 264 -306 689 -420 945
-114 256 -209 471 -212 478 -4 10 51 12 268 10 l274 -3 192 -479z m4498 -76
l175 0 0 -180 0 -180 -172 -2 -173 -3 -3 -562 -2 -563 -233 0 -232 0 0 562 0
563 -72 3 -73 3 0 179 0 178 303 266 302 266 3 -265 2 -265 175 0z m-1530 -4
c172 -48 301 -120 399 -227 139 -150 206 -355 206 -634 l0 -85 -579 0 c-321 0
-582 -4 -585 -9 -8 -13 44 -80 98 -128 118 -104 316 -103 491 3 32 19 62 33
66 32 18 -7 268 -234 268 -245 1 -7 -25 -30 -56 -53 -268 -193 -676 -221 -988
-70 -202 98 -348 284 -391 499 -24 123 -16 308 20 416 85 265 293 439 607 510
87 20 360 14 444 -9z m2990 0 c190 -53 362 -191 442 -356 81 -165 92 -260 93
-767 l0 -363 -234 0 -235 0 -4 453 c-3 352 -6 461 -17 491 -23 63 -92 131
-178 173 -73 37 -80 38 -181 38 -95 0 -112 -3 -164 -27 -73 -34 -131 -80 -168
-131 l-29 -40 0 -479 0 -478 -230 0 -230 0 0 745 0 745 230 0 230 0 0 -65 0
-66 43 29 c77 53 186 100 267 116 57 10 306 -2 365 -18z m1663 -9 c40 -14 102
-44 138 -66 36 -23 67 -41 70 -41 2 0 4 27 4 60 l0 60 235 0 235 0 0 -745 0
-745 -235 0 -235 0 0 70 c0 39 -4 70 -8 70 -5 0 -17 -9 -27 -20 -32 -35 -126
-87 -210 -116 -72 -25 -93 -28 -210 -27 -229 0 -381 59 -526 203 -74 73 -93
99 -132 180 -57 120 -76 197 -84 335 -6 125 5 217 42 332 77 244 277 417 546
473 24 5 107 8 184 6 120 -3 150 -7 213 -29z m2029 3 c119 -42 248 -143 340
-265 25 -33 48 -58 51 -55 4 3 28 38 55 78 87 129 226 223 385 258 104 23 309
15 407 -16 124 -39 222 -97 305 -180 87 -88 135 -172 176 -305 l28 -90 4 -452
3 -453 -235 0 -235 0 -3 463 c-3 451 -4 463 -24 502 -84 156 -298 234 -476
174 -75 -25 -133 -64 -187 -125 l-41 -47 0 -483 0 -484 -235 0 -235 0 0 428
c0 471 -5 515 -57 580 -41 51 -119 109 -173 128 -25 8 -79 18 -120 21 -131 10
-239 -34 -330 -134 l-50 -55 0 -484 0 -484 -235 0 -235 0 0 745 0 745 235 0
235 0 0 -60 c0 -33 3 -60 6 -60 3 0 24 13 47 29 126 86 225 112 402 107 102
-3 143 -8 192 -26z m2935 16 c316 -61 531 -249 619 -541 17 -55 22 -106 26
-242 l5 -173 -581 0 c-319 0 -581 -4 -581 -8 0 -5 14 -30 32 -56 38 -58 105
-109 173 -133 108 -37 272 -11 385 61 30 20 59 36 63 36 11 0 277 -239 277
-248 0 -4 -26 -26 -58 -50 -295 -219 -777 -226 -1090 -13 -131 89 -241 247
-283 408 -15 59 -20 109 -20 203 0 151 20 243 82 361 103 198 302 338 555 393
90 19 301 20 396 2z m1586 -2 c42 -9 110 -29 150 -46 71 -30 192 -103 192
-116 0 -7 -204 -259 -235 -290 -10 -11 -29 -6 -111 34 -92 45 -105 48 -175 49
-85 0 -119 -17 -119 -61 0 -27 42 -51 215 -124 239 -101 343 -177 398 -290 32
-67 51 -191 43 -278 -19 -189 -147 -322 -366 -379 -92 -24 -299 -24 -403 0
-128 30 -276 100 -355 167 l-24 20 97 157 c54 87 98 159 99 160 1 1 28 -11 61
-28 132 -65 337 -99 390 -65 17 11 25 25 25 45 0 38 -22 51 -213 131 -176 75
-243 116 -319 198 -81 88 -102 147 -102 287 -1 136 21 198 96 280 60 66 174
126 283 149 95 20 277 20 373 0z m1627 -18 c147 -45 237 -97 341 -201 69 -69
100 -109 132 -170 67 -133 84 -205 89 -397 l5 -168 -581 0 c-319 0 -581 -4
-581 -8 0 -18 59 -99 91 -126 66 -56 134 -79 229 -79 101 1 185 25 271 78 69
43 47 53 218 -100 l122 -110 -43 -38 c-54 -47 -200 -121 -293 -147 -116 -33
-268 -46 -382 -32 -141 17 -215 37 -328 92 -199 96 -331 252 -387 457 -29 110
-29 315 1 426 74 279 299 475 621 543 44 9 117 12 225 10 139 -3 172 -7 250
-30z m-14097 -733 l2 -743 -230 0 -230 0 0 738 c0 406 3 742 7 746 4 3 106 5
227 4 l221 -3 3 -742z"/>
<path d="M5828 11057 c-102 -39 -191 -118 -234 -210 l-24 -52 357 -3 c196 -1
358 0 360 2 3 2 -8 30 -23 61 -33 66 -120 152 -190 186 -59 28 -189 37 -246
16z"/>
<path d="M10574 11052 c-114 -40 -210 -139 -246 -255 -30 -100 -23 -246 16
-334 32 -70 115 -157 185 -192 140 -72 329 -34 454 90 l57 57 0 230 0 230 -45
50 c-111 123 -279 173 -421 124z"/>
<path d="M15493 11056 c-84 -27 -180 -113 -225 -200 -16 -32 -27 -60 -25 -62
2 -2 165 -3 361 -2 l357 3 -31 61 c-36 72 -105 141 -181 180 -65 33 -187 43
-256 20z"/>
<path d="M18623 11056 c-61 -20 -103 -49 -162 -110 -41 -44 -91 -127 -91 -152
0 -2 160 -4 355 -4 253 0 355 3 355 11 0 27 -67 134 -106 168 -77 68 -136 93
-228 97 -51 3 -96 -1 -123 -10z"/>
</g>
</svg>
